# xmcd
#
# Track frame offsets: 
#        150
#        13308
#        30402
#        50908
#        70895
#        84827
#        105042
#        116876
#        137812
#        162025
#        177743
#        192198
#
# Disc length: 2655 seconds
#
# Revision: 3
# Processed by: cddbd v1.5.2PL0 Copyright (c) Steve Scherf et al.
# Submitted via: ExactAudioCopy v1.0b3
#
DISCID=9e0a5d0c
DTITLE=Chris Smither - Leave the Light On
DYEAR=2006
DGENRE=Folk
TTITLE0=Open Up
TTITLE1=Leave the Light On
TTITLE2=Shillin' for the Blues
TTITLE3=Seems So Real
TTITLE4=Origin of Species
TTITLE5=Cold Trail Blues
TTITLE6=Diplomacy
TTITLE7=Father's Day
TTITLE8=Visions of Johanna
TTITLE9=Blues in the Bottle
TTITLE10=John Hardy
TTITLE11=John Hardy (reprise)
EXTD=YEAR: 2006
EXTT0=
EXTT1=
EXTT2=
EXTT3=
EXTT4=
EXTT5=
EXTT6=
EXTT7=
EXTT8=
EXTT9=
EXTT10=
EXTT11=
PLAYORDER=
